<?xml version="1.0" standalone="no"?><!DOCTYPE svg PUBLIC "-//W3C//DTD SVG 1.1//EN" "http://www.w3.org/Graphics/SVG/1.1/DTD/svg11.dtd"><svg t="1583037379157" class="icon" viewBox="0 0 1024 1024" version="1.1" xmlns="http://www.w3.org/2000/svg" p-id="1178" xmlns:xlink="http://www.w3.org/1999/xlink" width="200" height="200"><defs><style type="text/css"></style></defs><path d="M512 1024a512 512 0 1 1 512-512 512 512 0 0 1-512 512z m0-981.333333a469.333333 469.333333 0 1 0 469.333333 469.333333A469.333333 469.333333 0 0 0 512 42.666667z m256 490.666666H533.333333v234.666667a21.333333 21.333333 0 0 1-42.666666 0V533.333333H256a21.333333 21.333333 0 0 1 0-42.666666h234.666667V256a21.333333 21.333333 0 0 1 42.666666 0v234.666667h234.666667a21.333333 21.333333 0 0 1 0 42.666666z" p-id="1179"></path></svg>