<?xml version="1.0" standalone="no"?><!DOCTYPE svg PUBLIC "-//W3C//DTD SVG 1.1//EN" "http://www.w3.org/Graphics/SVG/1.1/DTD/svg11.dtd"><svg t="1583030599603" class="icon" viewBox="0 0 1024 1024" version="1.1" xmlns="http://www.w3.org/2000/svg" p-id="1046" xmlns:xlink="http://www.w3.org/1999/xlink" width="200" height="200"><defs><style type="text/css"></style></defs><path d="M475.428571 73.142857C212.821943 73.142857 0 285.999543 0 548.571429s212.821943 475.428571 475.428571 475.428571c262.571886 0 475.428571-212.856686 475.428571-475.428571L475.428571 548.571429 475.428571 73.142857zM871.071086 621.714286C836.571429 808.749714 672.285257 950.857143 475.428571 950.857143c-221.822171 0-402.285714-180.463543-402.285714-402.285714 0-196.856686 142.107429-361.142857 329.142857-395.624229L402.285714 548.571429l0 73.142857 73.142857 0L871.071086 621.714286z" p-id="1047"></path><path d="M548.571429 0l0 475.428571 475.428571 0C1024 212.856686 811.143314 0 548.571429 0zM621.714286 79.804343C785.034971 109.909943 914.071771 238.981486 944.213943 402.285714L621.714286 402.285714 621.714286 79.804343z" p-id="1048"></path></svg>